# xmcd
#
# Track frame offsets:
#	150
#	12861
#	27767
#	38930
#	58818
#	72334
#	91033
#	109073
#	129044
#	147151
#	171029
#	187717
#	203967
#	218978
#
# Disc length: 3857 seconds
#
# Revision: 3
# Processed by: cddbd v1.5.1PL0 Copyright (c) Steve Scherf et al.
# Submitted via: EasyCDDAExtractor 7.0.6.1
#
DISCID=b80f0f0e
DTITLE=Boris McCutcheon - When We Were Big
DYEAR=2003
DGENRE=Country
TTITLE0=Hitch a Ride
TTITLE1=Beautiful Prison
TTITLE2=Idiot Lights
TTITLE3=Clumsy Kiss
TTITLE4=Slow Diablo
TTITLE5=Sad Mountain
TTITLE6=Santa Rosa Plims
TTITLE7=Gift Horse
TTITLE8=Fine Suede
TTITLE9=Mole in the Ground
TTITLE10=Pumpkin Farmer of Half Moon Bay
TTITLE11=Hurt
TTITLE12=Meet Me
TTITLE13=Diablo Waltz
EXTD=
EXTT0=
EXTT1=
EXTT2=
EXTT3=
EXTT4=
EXTT5=
EXTT6=
EXTT7=
EXTT8=
EXTT9=
EXTT10=
EXTT11=
EXTT12=
EXTT13=
PLAYORDER=
